# xmcd
#
# Track frame offsets:
#	150
#	26114
#	40421
#	52996
#	69358
#	83420
#	96638
#	110808
#	127293
#	141973
#	169422
#	208735
#	223095
#	235653
#	252416
#	263076
#	276447
#	291688
#	315648
#	329758
#
# Disc length: 4577
#
# Revision: 2
# Processed by: cddbd v1.5.1PL0 Copyright (c) Steve Scherf et al.
# Submitted via: Media_Universe 3.0
# Normalized: r1:TRMNUM
#
DISCID=4f11df14
DTITLE=Sidney Bechet - La grande parade de Sidney
DYEAR=1900
DGENRE=Jazz
TTITLE0=Saint Louis Blues
TTITLE1=Old Man River
TTITLE2=South Rempart Street Parade
TTITLE3=Basin street Blues
TTITLE4=Swanee River
TTITLE5=Dardanella
TTITLE6=Royal Garden Blues
TTITLE7=Cé Môssieur qui parlé
TTITLE8=Bechet's Creole Blues
TTITLE9=Halle Hallelujah
TTITLE10=Tin Roof Blues
TTITLE11=In The Groove
TTITLE12=Egyptian Fantasy
TTITLE13=Buddy Bolden Stomp
TTITLE14=Wild Man Blues
TTITLE15=Passport to Paradise
TTITLE16=Temperamental
TTITLE17=Muskat Ramble
TTITLE18=Strike up the Band
TTITLE19=Tiger Rag
EXTD=
EXTT0=
EXTT1=
EXTT2=
EXTT3=
EXTT4=
EXTT5=
EXTT6=
EXTT7=
EXTT8=
EXTT9=
EXTT10=
EXTT11=
EXTT12=
EXTT13=
EXTT14=
EXTT15=
EXTT16=
EXTT17=
EXTT18=
EXTT19=
PLAYORDER=
